<?xml version="1.0" standalone="no"?>
<!DOCTYPE svg PUBLIC "-//W3C//DTD SVG 20010904//EN"
 "http://www.w3.org/TR/2001/REC-SVG-20010904/DTD/svg10.dtd">
<svg version="1.0" xmlns="http://www.w3.org/2000/svg"
 width="1200.000000pt" height="1200.000000pt" viewBox="0 0 1200.000000 1200.000000"
 preserveAspectRatio="xMidYMid meet">

<g transform="translate(0.000000,1200.000000) scale(0.100000,-0.100000)"
fill="#000000" stroke="none">
<path d="M5838 10124 c-3 -3 -3 -17 1 -32 5 -18 15 -28 32 -30 13 -2 29 -8 35
-13 7 -6 13 -82 16 -220 4 -193 6 -212 24 -230 24 -23 52 -17 64 15 4 12 6
106 3 208 -7 210 -3 238 30 238 29 0 47 18 47 47 0 23 -1 23 -123 23 -68 0
-126 -3 -129 -6z"/>
<path d="M6217 10118 c-22 -18 -37 -118 -37 -259 0 -64 -3 -119 -7 -123 -4 -3
-8 -37 -11 -74 -2 -49 0 -71 10 -79 15 -13 178 -21 196 -9 32 19 -2 60 -51 62
-35 2 -71 39 -62 62 3 9 10 101 15 206 8 169 7 193 -7 208 -19 21 -24 22 -46
6z"/>
<path d="M5600 10094 c-41 -30 -49 -46 -50 -104 0 -63 5 -72 95 -175 34 -38
69 -85 78 -102 14 -30 14 -36 1 -63 -20 -39 -35 -38 -73 5 -22 26 -39 35 -61
35 -27 0 -30 -3 -30 -33 0 -62 57 -107 135 -107 33 0 50 7 79 33 33 28 38 38
39 77 1 88 -2 96 -60 159 -90 96 -105 119 -110 166 -5 38 -3 44 18 50 18 6 28
2 45 -19 16 -17 33 -26 54 -26 26 0 30 4 30 28 0 15 -11 40 -24 56 -20 25 -31
30 -82 33 -45 3 -65 0 -84 -13z"/>
<path d="M6529 10073 c-6 -16 -20 -89 -30 -163 -10 -74 -23 -154 -29 -178 -5
-23 -10 -74 -10 -112 0 -68 1 -70 25 -70 29 0 51 30 59 80 63 393 68 437 49
455 -23 24 -52 18 -64 -12z"/>
<path d="M5335 10070 c-11 -5 -34 -9 -51 -9 -43 -1 -60 -23 -46 -58 6 -16 13
-59 16 -98 9 -132 41 -346 56 -375 18 -37 220 1 220 41 0 25 -34 37 -88 31
-57 -6 -71 13 -72 92 0 61 14 85 52 86 19 0 47 40 28 40 -5 0 -10 7 -10 15 0
11 -12 15 -44 15 -51 0 -56 7 -56 86 0 49 2 55 26 64 14 6 36 10 48 10 30 0
49 23 41 50 -5 16 -14 20 -53 19 -26 0 -56 -4 -67 -9z"/>
<path d="M6706 10043 c-3 -10 -7 -38 -11 -63 -12 -99 -15 -117 -24 -175 -6
-33 -16 -106 -22 -162 -13 -109 -7 -133 31 -133 27 0 40 23 51 92 20 117 24
133 39 133 10 0 22 -34 40 -109 22 -90 31 -113 52 -129 48 -36 63 -5 85 168 8
66 19 149 24 185 24 173 24 168 -5 181 -37 17 -54 -2 -66 -77 -14 -84 -24
-117 -38 -122 -15 -5 -30 35 -34 88 -1 23 -6 44 -10 46 -4 3 -8 18 -8 33 0 15
-8 35 -18 44 -25 23 -79 22 -86 0z"/>
<path d="M4960 10013 c-75 -6 -111 -34 -90 -71 5 -9 12 -47 15 -84 4 -38 10
-68 15 -68 4 0 6 -9 3 -20 -3 -11 0 -27 7 -35 7 -8 10 -22 6 -30 -3 -9 -2 -14
2 -11 4 2 9 -14 9 -36 1 -23 7 -46 13 -52 5 -5 10 -35 10 -66 0 -63 11 -80 52
-80 37 0 48 24 37 85 -17 95 -15 122 6 122 9 0 28 -27 46 -66 46 -101 56 -116
79 -119 12 -2 30 5 40 15 17 17 15 22 -27 107 -39 77 -44 95 -39 130 21 133
21 136 -17 215 -25 52 -77 72 -167 64z m89 -102 c23 -32 28 -100 9 -119 -23
-23 -48 -13 -64 23 -14 35 -19 107 -7 118 15 15 43 5 62 -22z"/>
<path d="M7137 9952 c-30 -19 -77 -103 -77 -138 0 -13 -4 -25 -9 -28 -5 -3
-11 -18 -14 -33 -3 -16 -14 -65 -26 -111 -25 -100 -26 -112 -5 -155 21 -45 47
-59 111 -62 29 -1 56 -5 60 -8 3 -4 17 -7 29 -7 20 0 26 9 42 68 31 111 40
155 35 168 -6 16 -66 36 -95 32 -28 -4 -36 -42 -14 -67 25 -28 -4 -121 -39
-121 -19 0 -45 34 -45 60 0 23 30 150 50 216 6 17 10 36 10 43 0 26 32 80 51
86 32 11 49 -12 49 -67 l0 -49 37 3 c31 2 39 8 47 30 13 37 -10 103 -47 134
-35 29 -107 33 -150 6z"/>
<path d="M4717 9944 c-3 -3 -3 -48 0 -100 3 -52 1 -94 -3 -94 -25 1 -64 54
-64 86 0 8 -4 14 -8 14 -5 0 -14 11 -20 25 -9 19 -19 25 -42 25 -34 0 -33 5
-30 -118 1 -86 0 -93 -17 -90 -16 3 -35 42 -69 139 -9 25 -45 37 -71 24 -20
-10 -21 -14 -9 -36 6 -13 18 -45 25 -72 8 -26 18 -50 22 -53 5 -3 9 -16 9 -30
0 -13 3 -24 8 -24 10 0 42 -58 42 -78 0 -9 7 -26 15 -36 8 -10 12 -23 8 -29
-3 -6 -1 -7 5 -3 11 6 16 -5 14 -26 -1 -3 5 -12 13 -18 8 -7 15 -23 15 -35 0
-32 35 -72 61 -70 28 2 49 41 39 74 -4 14 -8 54 -9 89 -2 49 1 62 13 62 17 0
56 -51 56 -73 0 -19 27 -72 44 -86 20 -17 63 -3 70 22 3 12 1 53 -5 92 -11 72
-25 194 -34 300 -10 117 -13 125 -44 125 -15 0 -30 -3 -34 -6z"/>
<path d="M7710 9822 c-15 -5 -49 -42 -50 -54 0 -4 -13 -37 -30 -73 -16 -36
-30 -70 -30 -76 0 -6 -7 -25 -16 -42 -31 -60 -34 -67 -34 -87 0 -11 -4 -20
-10 -20 -5 0 -10 -7 -10 -15 0 -14 -21 -67 -42 -109 -10 -19 -7 -23 33 -46 8
-5 20 -6 26 -2 12 8 53 86 53 102 0 5 9 30 21 55 21 44 21 44 77 47 53 3 57 5
57 28 0 16 -8 28 -22 35 -42 18 -46 45 -18 103 27 57 35 60 95 36 42 -17 70
-8 70 22 0 15 -42 46 -90 64 -19 7 -42 19 -50 25 -8 7 -22 10 -30 7z"/>
<path d="M4033 9731 c-34 -14 -67 -30 -72 -36 -10 -11 17 -107 31 -113 4 -2 8
-19 8 -38 0 -20 4 -33 9 -29 10 6 26 -33 17 -42 -3 -3 1 -12 9 -20 8 -8 15
-25 15 -37 0 -13 7 -29 15 -36 8 -7 13 -16 10 -20 -3 -5 0 -10 6 -12 6 -2 13
-15 15 -28 4 -29 24 -86 41 -115 11 -19 12 -19 70 -1 32 10 67 25 78 32 11 8
27 14 36 14 26 0 32 31 11 52 -17 18 -20 18 -64 2 -25 -10 -52 -15 -60 -11 -9
3 -24 31 -33 61 -10 31 -22 56 -26 56 -5 0 -9 5 -9 11 0 5 5 7 10 4 6 -3 10
-1 10 6 0 7 14 24 31 38 42 36 32 61 -26 61 -43 0 -55 9 -82 57 -7 13 -13 32
-13 44 0 21 35 58 56 59 19 0 47 38 41 55 -9 22 -62 17 -134 -14z"/>
<path d="M7947 9693 c-24 -39 -47 -88 -67 -138 -13 -33 -29 -67 -37 -76 -7 -8
-13 -18 -13 -21 0 -3 -20 -49 -45 -102 -25 -53 -48 -109 -51 -126 -6 -26 -3
-30 37 -49 110 -50 169 -65 169 -42 0 5 3 17 6 25 4 12 -4 20 -27 31 -19 8
-44 22 -56 32 l-22 18 19 54 c28 79 65 111 96 82 13 -13 54 5 54 24 0 9 -13
28 -30 42 -16 13 -30 31 -30 39 0 23 40 102 55 108 7 2 36 -3 64 -12 47 -15
53 -15 68 0 24 25 10 44 -59 76 -72 33 -124 47 -131 35z"/>
<path d="M3740 9596 c-103 -39 -120 -53 -102 -89 6 -12 18 -43 28 -69 9 -27
21 -48 25 -48 5 0 9 -13 9 -29 0 -16 6 -34 14 -40 8 -7 17 -24 21 -39 11 -45
85 -205 98 -210 4 -2 7 -10 7 -18 0 -18 1 -18 58 7 91 40 115 54 129 76 23 34
13 127 -20 195 -15 30 -27 63 -27 72 0 9 -11 34 -25 56 -14 22 -25 46 -25 54
0 22 -65 74 -107 85 -45 13 -40 13 -83 -3z m91 -98 c16 -18 29 -38 29 -45 0
-7 11 -34 24 -60 63 -124 82 -208 51 -233 -11 -9 -22 -11 -31 -4 -18 11 -94
147 -94 167 0 7 -13 40 -28 73 -38 78 -47 115 -30 125 25 16 49 9 79 -23z"/>
<path d="M8216 9545 c-9 -13 -16 -27 -16 -30 0 -3 -15 -29 -33 -58 -18 -29
-39 -68 -47 -87 -7 -19 -17 -40 -21 -45 -20 -26 -109 -212 -109 -227 0 -32
152 -87 205 -74 46 12 93 71 152 190 78 160 82 174 66 228 -14 50 -27 64 -96
102 -59 32 -80 33 -101 1z m108 -91 c23 -22 20 -40 -20 -124 -94 -199 -116
-230 -158 -230 -53 0 -49 27 23 171 88 175 103 199 123 199 9 0 24 -7 32 -16z"/>
<path d="M3449 9464 c-10 -13 -8 -24 14 -67 15 -29 27 -58 27 -64 0 -7 5 -13
10 -13 6 0 10 -9 10 -19 0 -22 31 -81 43 -81 4 0 7 -8 7 -17 0 -10 18 -52 40
-93 22 -41 45 -87 51 -102 14 -36 38 -43 64 -18 26 25 25 31 -44 175 -137 289
-152 315 -181 315 -15 0 -33 -7 -41 -16z"/>
<path d="M3295 9397 c-21 -16 -17 -49 19 -157 25 -72 21 -105 -8 -81 -9 8 -16
20 -16 27 0 8 -3 14 -8 14 -4 0 -27 25 -51 55 -24 30 -52 57 -63 61 -47 15
-64 -55 -28 -114 11 -18 18 -37 16 -41 -3 -4 2 -20 10 -35 18 -36 18 -36 -10
-36 -15 0 -27 7 -30 18 -3 9 -18 31 -33 48 -16 18 -36 41 -45 53 -21 25 -63
28 -76 5 -12 -21 4 -51 68 -129 28 -33 82 -100 121 -150 117 -148 126 -157
157 -153 23 3 28 8 30 37 2 19 -1 44 -6 55 -25 53 -52 126 -52 140 0 25 20 19
49 -15 87 -103 115 -129 137 -129 27 0 47 30 38 57 -6 19 -22 58 -33 83 -4 8
-20 56 -35 105 -16 50 -35 104 -42 122 -8 17 -14 33 -14 36 0 2 -8 22 -17 43
-10 22 -18 45 -18 53 0 7 -9 20 -21 27 -17 12 -23 12 -39 1z"/>
<path d="M8517 9362 c-19 -27 -51 -81 -71 -121 -20 -39 -49 -95 -64 -124 -88
-160 -95 -176 -82 -192 7 -8 29 -23 49 -32 20 -9 49 -27 64 -40 32 -25 57 -29
75 -11 21 21 13 36 -33 68 -54 37 -57 63 -16 130 28 45 28 45 78 42 37 -2 54
2 64 14 12 14 9 20 -19 45 -18 16 -32 35 -32 43 0 27 30 85 52 100 20 14 25
14 65 -9 l44 -24 20 20 21 21 -22 23 c-12 13 -46 35 -75 49 -29 14 -56 30 -60
35 -11 19 -22 12 -58 -37z"/>
<path d="M8779 9167 c-25 -34 -60 -87 -77 -118 -18 -31 -39 -62 -47 -69 -8 -7
-15 -18 -15 -25 0 -7 -7 -18 -15 -25 -23 -19 -75 -118 -75 -143 0 -15 9 -28
24 -35 28 -13 41 -1 101 91 25 37 45 57 57 57 14 0 18 -5 14 -16 -3 -9 -9 -28
-12 -42 -3 -15 -9 -36 -14 -47 -4 -11 -13 -33 -19 -48 -18 -45 -14 -72 14 -87
22 -12 27 -11 40 6 8 10 23 46 34 79 35 109 50 136 84 150 18 7 49 31 70 53
62 64 70 149 18 205 -28 31 -102 77 -123 77 -7 0 -34 -28 -59 -63z m125 -56
c36 -40 -17 -141 -74 -141 -60 0 -58 43 4 123 33 42 46 45 70 18z"/>
<path d="M5495 9190 c-16 -4 -56 -8 -87 -9 -31 0 -110 -11 -175 -22 -65 -12
-138 -24 -163 -26 -25 -3 -49 -9 -54 -14 -6 -5 -21 -9 -35 -9 -13 0 -38 -4
-55 -10 -17 -5 -67 -17 -111 -26 -44 -9 -91 -20 -105 -24 -14 -4 -65 -20 -115
-35 -151 -47 -208 -67 -257 -91 -26 -13 -54 -24 -62 -24 -17 0 -85 -36 -143
-75 -19 -14 -42 -25 -50 -25 -16 0 -50 -18 -78 -42 -11 -9 -47 -29 -80 -44
-33 -15 -83 -42 -111 -58 -77 -47 -57 -34 -247 -173 -20 -15 -56 -43 -80 -62
-23 -18 -73 -54 -112 -79 -38 -25 -74 -51 -78 -58 -4 -8 -36 -30 -70 -50 -34
-19 -78 -50 -97 -68 -32 -30 -96 -79 -211 -161 -104 -75 -136 -98 -159 -118
-14 -13 -57 -44 -96 -70 -39 -26 -77 -53 -83 -61 -6 -8 -26 -20 -44 -27 -18
-7 -50 -29 -73 -48 -41 -37 -325 -245 -453 -333 -18 -13 -79 -57 -135 -99 -57
-42 -137 -100 -179 -128 -42 -29 -98 -71 -124 -94 -45 -40 -82 -68 -122 -92
-9 -5 -56 -40 -103 -77 -48 -38 -89 -68 -93 -68 -3 0 -23 -13 -43 -30 -40 -31
-198 -148 -224 -165 -45 -29 -76 -52 -106 -77 -19 -16 -52 -41 -74 -56 -93
-61 -94 -62 -231 -167 -90 -69 -92 -72 -94 -114 -1 -24 -8 -51 -17 -59 -14
-14 -13 -19 6 -50 20 -32 22 -51 24 -216 1 -100 2 -223 3 -273 l1 -93 93 -1
c50 0 110 -4 132 -8 23 -4 50 -3 63 3 17 7 32 5 58 -7 28 -14 41 -31 64 -83
17 -36 30 -77 30 -90 0 -13 5 -24 10 -24 6 0 10 -13 10 -28 0 -15 4 -32 10
-38 12 -12 60 -144 60 -165 0 -9 7 -20 16 -23 10 -4 13 -13 9 -25 -3 -10 1
-24 10 -31 8 -7 15 -21 15 -31 0 -11 8 -38 19 -62 28 -64 49 -118 62 -162 16
-54 37 -111 60 -163 10 -23 19 -51 19 -62 0 -10 5 -22 10 -25 6 -3 10 -16 10
-28 0 -12 7 -31 15 -41 8 -11 15 -30 15 -43 0 -13 5 -23 10 -23 6 0 10 -9 10
-19 0 -11 4 -23 10 -26 5 -3 10 -16 10 -29 0 -21 15 -61 41 -108 5 -10 9 -27
9 -37 0 -11 4 -23 10 -26 5 -3 10 -17 10 -30 0 -13 4 -26 9 -30 5 -3 12 -19
16 -35 4 -17 11 -30 16 -30 6 0 8 -4 5 -8 -3 -5 2 -21 10 -36 7 -16 14 -41 14
-56 0 -15 7 -33 15 -40 9 -7 14 -19 11 -26 -3 -7 -1 -16 3 -18 4 -3 32 -79 61
-168 51 -159 71 -215 90 -250 6 -10 10 -28 10 -41 0 -13 4 -27 9 -32 10 -12
46 -117 43 -127 -1 -5 2 -8 6 -8 4 0 14 -21 21 -47 7 -27 19 -62 27 -80 8 -17
14 -36 14 -42 0 -7 7 -23 16 -36 9 -13 13 -29 9 -35 -3 -5 -1 -10 4 -10 6 0
11 -8 11 -17 0 -21 19 -81 36 -115 8 -14 14 -33 14 -41 0 -9 5 -17 11 -19 6
-2 12 -13 13 -23 2 -11 8 -33 15 -49 6 -16 10 -34 8 -41 -3 -6 1 -19 9 -30 8
-10 14 -29 14 -41 0 -12 7 -25 16 -28 9 -4 14 -13 10 -22 -4 -10 -2 -13 6 -8
7 5 9 2 6 -7 -3 -9 2 -33 13 -55 10 -21 18 -47 19 -56 0 -9 5 -20 10 -23 5 -3
10 -17 10 -29 0 -13 7 -29 15 -36 8 -7 13 -16 10 -20 -3 -5 -1 -11 4 -14 5 -3
12 -26 15 -51 4 -25 11 -45 17 -45 5 0 9 -11 9 -25 0 -16 6 -25 15 -25 8 0 15
-4 15 -9 0 -5 3 -18 6 -28 5 -15 4 -15 -5 -3 -9 13 -11 13 -11 0 1 -8 7 -24
15 -34 8 -11 15 -32 15 -47 0 -15 5 -31 10 -34 6 -3 10 -17 10 -31 0 -14 14
-40 32 -59 l31 -35 351 -1 c193 0 369 -3 391 -7 25 -5 49 -3 63 4 24 12 57 63
47 72 -3 3 2 13 11 23 10 11 15 28 12 43 -3 14 -2 23 2 21 4 -3 11 11 14 30 4
19 12 40 19 47 7 7 14 24 15 38 2 14 10 29 18 33 8 4 14 17 14 27 0 10 5 22
10 25 6 4 8 10 5 14 -2 5 2 17 10 27 8 10 15 29 15 42 0 12 6 25 13 27 6 3 12
22 13 42 0 20 6 39 12 41 7 2 12 14 12 27 0 13 4 26 9 29 4 3 11 24 15 46 3
22 10 40 15 40 5 0 14 21 22 47 7 27 19 59 25 72 7 14 10 29 7 34 -3 6 -1 7 5
3 7 -4 12 -3 12 3 0 5 5 22 12 38 6 15 10 32 10 36 -1 4 5 21 13 37 8 16 15
38 15 48 0 11 6 25 14 31 8 7 20 32 27 56 7 25 17 45 22 45 4 0 5 5 2 10 -4 6
1 24 9 42 9 17 16 42 16 55 0 14 4 21 10 18 6 -3 10 -2 10 4 0 5 5 22 12 38 6
15 13 39 15 52 2 14 9 34 16 45 6 12 13 34 15 51 2 16 12 41 23 56 10 15 19
34 19 42 0 9 10 37 22 64 11 26 22 55 24 63 2 8 8 16 13 18 6 2 11 14 11 27 0
13 10 31 22 39 21 15 22 14 34 -20 7 -20 17 -41 23 -47 6 -6 11 -21 11 -33 0
-12 6 -35 14 -51 8 -15 18 -39 24 -53 5 -14 14 -36 20 -50 17 -40 42 -127 42
-145 0 -9 5 -13 10 -10 6 3 10 -2 10 -13 0 -10 7 -33 16 -50 8 -18 13 -36 10
-41 -3 -5 1 -14 9 -21 8 -7 15 -25 15 -41 0 -16 5 -29 10 -29 6 0 10 -14 10
-30 0 -18 6 -33 15 -37 9 -3 15 -13 14 -22 -1 -9 3 -29 9 -44 7 -16 12 -33 12
-38 0 -5 5 -9 10 -9 6 0 10 -16 10 -35 0 -19 5 -35 10 -35 6 0 10 -13 10 -29
0 -17 4 -32 9 -36 5 -3 13 -20 17 -38 3 -17 18 -53 31 -79 14 -26 22 -52 19
-57 -4 -5 -2 -12 3 -15 5 -3 12 -22 15 -41 4 -19 11 -35 16 -35 6 0 10 -16 10
-35 0 -19 5 -35 10 -35 6 0 10 -6 10 -14 0 -8 6 -27 14 -43 8 -15 19 -43 25
-60 26 -77 34 -99 46 -123 7 -14 18 -47 25 -75 7 -27 17 -54 21 -59 5 -6 9
-18 9 -29 0 -10 4 -15 10 -12 14 9 13 -21 -2 -44 -29 -47 15 -56 317 -65 381
-12 420 -11 454 14 41 29 71 78 100 165 25 73 46 128 62 157 5 10 9 27 9 37 0
11 4 23 10 26 5 3 10 16 10 29 0 12 7 31 15 42 8 10 15 27 15 37 0 9 4 25 9
35 5 9 13 28 18 42 6 14 18 42 27 63 9 21 16 44 16 52 0 9 4 23 9 33 14 27 27
62 56 142 54 152 79 215 87 225 4 5 8 16 8 25 0 14 32 104 60 165 5 11 14 38
21 60 6 22 18 55 25 73 8 18 14 41 14 52 0 10 4 21 8 24 4 3 14 28 22 56 8 28
18 53 22 56 4 3 8 14 8 24 0 44 72 120 115 120 16 0 54 -36 55 -52 0 -4 10
-31 23 -60 13 -29 30 -73 37 -98 7 -25 17 -49 22 -55 4 -5 8 -16 8 -25 0 -9 8
-34 19 -56 10 -21 26 -64 36 -94 9 -30 22 -64 27 -74 6 -11 19 -47 29 -80 23
-77 46 -142 64 -183 8 -17 15 -36 15 -42 0 -6 4 -19 9 -29 5 -9 14 -37 21 -62
7 -25 16 -53 21 -62 5 -10 18 -46 30 -80 12 -35 35 -91 50 -125 16 -34 29 -73
29 -85 0 -13 7 -33 15 -45 8 -12 21 -47 29 -80 22 -91 46 -164 72 -221 13 -29
24 -66 24 -82 0 -16 5 -32 10 -35 6 -3 10 -15 10 -25 0 -10 5 -22 11 -26 6 -4
80 -5 163 -4 138 3 278 3 396 -2 25 0 59 0 75 2 17 1 61 1 98 0 53 -1 73 2 88
16 22 20 49 70 49 91 0 8 9 32 21 55 11 22 29 66 39 97 10 31 28 79 40 106 12
28 26 59 30 70 31 80 42 109 65 175 15 41 31 89 36 107 5 18 14 35 19 38 6 4
10 16 10 27 0 12 15 53 34 92 18 39 44 98 56 131 22 59 42 108 74 174 9 19 16
42 16 52 0 10 11 44 25 75 14 31 25 60 25 65 0 5 11 33 25 63 14 30 25 57 25
60 0 4 9 25 19 49 11 23 27 67 37 97 16 53 29 85 78 195 13 28 29 70 36 95 7
25 20 52 27 61 7 8 13 20 13 26 0 6 6 13 14 16 17 7 46 -33 46 -62 0 -11 4
-22 9 -25 4 -3 16 -27 25 -53 10 -26 22 -57 26 -68 26 -58 60 -150 60 -161 0
-7 8 -28 19 -46 10 -18 27 -58 36 -88 10 -30 29 -78 42 -107 13 -28 23 -62 23
-75 0 -13 9 -38 20 -56 11 -18 20 -38 20 -44 0 -12 63 -176 81 -210 4 -9 26
-67 48 -130 22 -62 47 -133 57 -158 9 -25 20 -58 25 -75 9 -37 35 -108 56
-155 50 -115 63 -151 63 -174 0 -11 7 -29 15 -39 7 -10 19 -42 26 -70 6 -29
19 -65 27 -82 9 -16 23 -59 32 -95 l17 -65 409 -5 c225 -3 414 -9 420 -13 7
-4 27 -1 45 7 25 11 41 28 60 68 43 85 56 119 75 183 9 33 23 74 30 90 14 33
41 106 54 146 4 15 14 42 23 60 31 72 39 95 44 119 2 13 8 29 12 35 5 5 22 48
39 95 68 192 92 256 101 275 5 11 19 49 31 85 12 36 29 81 37 100 8 19 19 44
23 55 10 23 44 119 66 185 8 25 19 54 23 65 16 39 40 101 76 200 20 55 43 116
52 135 8 19 24 62 34 95 11 33 28 78 37 100 10 22 25 60 32 85 7 25 20 53 28
63 8 9 12 17 9 17 -5 0 48 156 76 223 8 18 21 52 30 77 8 25 21 61 28 80 7 19
18 49 25 65 18 42 44 116 50 140 3 11 10 30 15 43 5 12 13 32 18 45 5 12 17
45 27 72 9 28 21 54 26 60 4 5 8 17 8 27 0 10 4 26 9 36 33 68 51 111 56 137
8 44 55 166 86 227 5 10 9 27 9 37 0 11 4 22 9 25 5 3 12 21 15 39 11 61 24
69 107 68 61 -1 84 4 131 27 81 39 83 47 86 341 2 140 8 253 13 264 22 39 -25
95 -151 179 -41 28 -122 88 -227 168 -54 41 -118 88 -143 105 -25 16 -67 48
-95 70 -27 23 -61 49 -75 58 -28 20 -71 52 -155 117 -61 47 -177 133 -233 172
-18 13 -50 37 -71 53 -21 17 -64 50 -96 75 -31 25 -68 52 -80 60 -13 8 -61 43
-107 77 -46 35 -98 73 -116 85 -18 13 -52 38 -75 56 -23 18 -67 52 -97 75 -30
24 -76 56 -102 71 -26 15 -73 51 -105 79 -32 29 -105 83 -161 121 -56 38 -102
73 -102 77 0 5 -5 9 -11 9 -5 0 -40 24 -77 53 -37 29 -78 60 -92 70 -14 9 -50
35 -80 56 -30 22 -80 56 -112 75 -31 19 -82 55 -113 81 -31 25 -73 57 -94 70
-20 14 -72 54 -116 90 -44 36 -96 76 -116 89 -20 14 -79 64 -130 112 -108 101
-165 144 -189 144 -10 0 -58 21 -106 46 -265 137 -494 247 -549 265 -22 6 -49
15 -60 20 -11 4 -36 11 -55 15 -19 3 -53 15 -74 25 -22 11 -46 19 -55 19 -8 0
-25 10 -38 22 -24 22 -79 36 -173 44 -30 3 -62 8 -70 11 -36 15 -231 55 -285
60 -33 2 -64 9 -70 14 -5 5 -29 9 -54 9 -46 0 -195 26 -221 38 -8 4 -55 9
-105 11 -49 2 -98 7 -107 12 -20 11 -670 10 -713 -1z m-150 -179 c19 -8 19 -8
0 -18 -40 -20 -181 -72 -225 -83 -25 -6 -61 -22 -80 -34 -19 -13 -46 -27 -60
-31 -14 -4 -63 -26 -110 -49 -47 -24 -103 -48 -125 -55 -40 -13 -306 -152
-335 -175 -8 -7 -49 -33 -91 -59 -68 -42 -134 -89 -281 -201 l-46 -36 -229 1
c-260 1 -318 6 -318 30 0 16 55 66 130 115 22 15 58 39 80 54 110 74 502 254
678 311 339 111 547 164 852 219 115 20 133 21 160 11z m323 -13 c-4 -12 -104
-70 -168 -98 -48 -21 -259 -151 -357 -220 -54 -37 -113 -79 -132 -92 -19 -13
-64 -53 -100 -89 -36 -36 -81 -74 -100 -84 -19 -10 -60 -42 -90 -72 -89 -87
-79 -85 -337 -77 -124 4 -227 11 -230 15 -12 21 26 56 149 136 73 47 150 97
172 112 80 52 358 196 455 235 36 15 73 31 82 36 10 6 24 10 31 10 7 0 42 16
77 35 36 19 73 35 83 35 9 0 63 15 120 34 56 19 120 39 142 45 22 6 67 20 100
30 71 23 108 26 103 9z m646 1 c146 -37 249 -68 296 -87 14 -6 66 -25 115 -42
50 -17 99 -35 110 -40 11 -5 49 -21 85 -36 62 -25 103 -42 200 -86 57 -26 48
-21 231 -116 216 -112 233 -123 425 -260 58 -42 74 -59 74 -78 l0 -26 -289 4
c-272 3 -291 4 -315 23 -14 11 -78 65 -142 120 -64 55 -140 118 -168 139 -88
68 -453 315 -529 358 -86 49 -177 115 -177 128 0 13 33 13 84 -1z m-548 -44
c6 -14 -45 -87 -137 -195 -59 -70 -201 -288 -263 -403 -34 -63 -55 -91 -74
-98 -16 -7 -113 -10 -242 -8 -118 1 -237 -1 -264 -6 -29 -5 -47 -4 -45 1 11
27 79 104 121 139 27 22 82 67 121 99 192 159 413 304 627 414 47 23 92 50
100 58 19 18 49 18 56 -1z m407 -13 c246 -141 432 -253 491 -297 23 -17 66
-46 96 -65 51 -32 165 -123 298 -237 63 -53 84 -89 61 -104 -15 -11 -562 -5
-591 6 -8 3 -42 54 -74 113 -31 59 -72 130 -89 157 -18 28 -46 75 -62 105 -17
30 -54 91 -82 135 -96 152 -127 215 -103 215 4 0 28 -13 55 -28z m-262 -47
c11 -108 10 -590 0 -618 l-11 -27 -227 2 c-197 3 -228 5 -231 19 -5 26 111
227 224 387 21 29 45 67 53 85 9 18 47 74 85 125 82 111 98 115 107 27z m1015
34 c93 -16 283 -59 328 -74 23 -7 59 -16 81 -20 37 -6 78 -17 130 -35 11 -3
45 -19 75 -33 30 -15 58 -27 62 -27 8 0 191 -84 230 -105 14 -8 35 -15 45 -15
10 0 23 -4 28 -9 6 -5 28 -14 50 -21 59 -18 204 -89 249 -122 21 -15 45 -28
52 -28 7 0 51 -33 98 -72 46 -40 103 -86 125 -101 23 -16 41 -35 41 -43 0 -13
-27 -14 -207 -9 -309 10 -284 4 -393 96 -117 98 -373 261 -540 343 -52 25
-105 57 -119 70 -14 13 -42 26 -61 29 -34 5 -75 21 -225 91 -38 18 -86 38
-106 45 -20 6 -45 21 -54 31 -18 20 -17 20 17 20 19 0 61 -5 94 -11z m-845
-87 c30 -37 61 -81 69 -97 8 -17 20 -37 27 -45 14 -18 59 -99 129 -235 26 -49
54 -101 64 -115 10 -14 20 -41 21 -60 l4 -35 -185 -2 c-102 -2 -191 1 -198 5
-16 11 -17 26 -14 370 2 231 4 282 16 282 7 0 38 -30 67 -68z m-2213 -645 c18
-12 1 -38 -60 -94 -85 -79 -189 -186 -217 -223 -14 -19 -41 -50 -59 -68 -52
-53 -186 -236 -251 -343 -22 -36 -47 -71 -55 -79 -13 -10 -81 -11 -335 -5
-175 4 -325 11 -332 16 -18 11 22 95 75 158 20 24 42 53 48 65 40 76 310 358
451 472 154 124 118 115 442 112 154 -2 286 -7 293 -11z m1232 -7 c80 -4 146
-8 148 -9 10 -6 -3 -55 -28 -106 -61 -124 -106 -237 -184 -470 -73 -217 -83
-240 -106 -246 -28 -7 -491 -2 -698 7 -72 3 -135 10 -138 16 -3 5 0 24 7 41
22 57 180 316 203 334 12 10 26 31 30 46 3 15 35 60 69 100 34 40 92 108 129
152 120 145 110 139 256 146 70 3 136 3 147 1 11 -3 85 -8 165 -12z m-585 -6
c20 -8 9 -27 -50 -89 -146 -152 -365 -465 -444 -636 -12 -25 -35 -56 -52 -68
-30 -22 -36 -23 -277 -21 -301 3 -346 7 -350 36 -2 11 13 43 32 70 19 27 45
67 57 89 12 22 47 70 78 108 31 38 67 86 80 106 39 58 395 409 422 414 31 7
483 -1 504 -9z m1396 -25 c13 -25 9 -776 -4 -796 -6 -10 -85 -13 -340 -12
-183 1 -370 4 -417 7 -81 7 -85 8 -88 32 -3 31 54 210 107 335 5 11 26 61 46
110 37 89 71 159 133 283 l32 62 260 0 c253 0 260 0 271 -21z m538 4 c27 -23
68 -103 153 -298 38 -88 73 -169 78 -180 61 -140 105 -285 101 -333 -1 -11
-70 -13 -382 -10 -367 3 -381 4 -396 23 -13 17 -14 73 -10 407 3 212 8 391 12
397 4 7 76 11 214 11 184 0 211 -2 230 -17z m624 1 l189 -6 62 -62 c139 -137
236 -260 360 -461 38 -60 79 -127 92 -148 33 -51 66 -137 59 -155 -4 -12 -68
-13 -460 -8 -251 4 -466 11 -479 16 -26 10 -27 12 -66 135 -51 163 -98 288
-165 440 -104 236 -104 234 -80 252 16 12 45 14 160 9 77 -3 225 -9 328 -12z
m929 -17 c28 -12 208 -186 290 -280 63 -73 238 -307 238 -319 0 -6 9 -23 20
-38 41 -58 90 -153 90 -175 0 -19 -7 -24 -41 -29 -22 -4 -44 -4 -48 -2 -4 3
-135 7 -292 11 -156 3 -293 8 -305 10 -14 3 -39 38 -79 112 -129 238 -263 430
-419 601 -118 129 -131 122 222 122 209 -1 305 -4 324 -13z m705 -30 c29 -15
55 -32 58 -37 4 -6 39 -33 80 -60 96 -65 244 -217 325 -334 8 -11 38 -48 67
-80 29 -33 53 -64 53 -70 0 -5 9 -19 20 -31 27 -29 89 -132 96 -161 4 -16 0
-25 -14 -33 -23 -12 -466 -16 -571 -5 l-62 7 -44 86 c-98 189 -240 381 -432
586 -47 50 -96 102 -110 117 -14 14 -22 32 -18 38 5 8 75 11 254 8 l246 -4 52
-27z m-5622 -816 c95 -7 94 -5 34 -126 -55 -112 -127 -304 -154 -410 -13 -49
-31 -117 -39 -150 -9 -32 -16 -75 -16 -95 0 -19 -7 -46 -16 -58 -15 -22 -16
-23 -207 -16 -274 8 -455 19 -463 27 -11 11 -4 127 12 202 9 38 20 88 24 110
27 131 187 510 219 519 24 6 516 4 606 -3z m855 -17 c7 -7 5 -17 -8 -35 -11
-13 -40 -85 -65 -159 -68 -197 -108 -380 -123 -562 -4 -54 -11 -82 -23 -93
-16 -14 -53 -14 -365 -3 -308 10 -348 14 -356 29 -6 11 -1 59 15 140 51 253
88 376 158 516 19 37 37 79 40 93 4 14 20 40 36 58 l31 33 324 -3 c216 -2 329
-7 336 -14z m858 3 c68 -3 126 -8 129 -11 6 -6 -10 -113 -28 -186 -20 -84 -39
-298 -40 -460 -1 -129 -5 -181 -15 -197 l-13 -21 -483 5 c-338 4 -491 9 -508
17 -24 11 -25 15 -23 100 1 48 12 127 23 175 11 47 30 124 41 171 11 47 31
112 44 145 12 33 35 92 50 130 46 120 53 129 116 135 62 6 522 4 707 -3z
m1099 -29 c12 -9 14 -80 11 -420 -3 -476 4 -445 -103 -432 -33 4 -73 6 -90 5
-106 -6 -752 3 -760 11 -17 15 -11 367 9 508 23 164 54 321 69 338 9 12 81 13
431 8 295 -4 423 -10 433 -18z m900 -4 c12 -2 27 -12 32 -22 11 -20 61 -208
66 -250 2 -15 13 -81 24 -147 11 -66 27 -184 36 -263 16 -134 16 -144 0 -169
l-17 -26 -207 7 c-113 3 -313 6 -444 7 -131 1 -250 4 -265 8 l-27 7 -7 170
c-3 93 -6 176 -6 184 0 55 14 495 16 497 11 10 750 7 799 -3z m862 -8 c219 -3
224 -4 241 -26 18 -24 99 -261 124 -365 32 -128 56 -298 45 -312 -8 -8 -9 -38
-4 -87 5 -54 3 -76 -6 -82 -15 -9 -835 -7 -929 2 -36 4 -70 11 -77 16 -6 5
-14 44 -18 86 -15 194 -52 436 -91 597 -13 55 -25 116 -26 135 -3 32 0 35 27
40 29 6 231 4 714 -4z m811 -12 c176 -4 229 -8 247 -20 13 -8 23 -19 23 -24 0
-9 19 -54 51 -125 5 -11 11 -30 14 -43 2 -12 7 -27 10 -33 11 -17 54 -196 70
-289 21 -124 29 -280 16 -313 l-11 -28 -273 3 c-421 4 -436 5 -447 32 -4 12
-13 78 -19 146 -15 164 -81 447 -137 588 -14 34 -24 72 -22 85 3 20 10 23 73
28 39 4 95 5 125 2 30 -2 156 -6 280 -9z m1008 -19 c12 -4 22 -13 22 -20 0
-11 12 -41 67 -163 52 -117 107 -352 105 -452 -1 -30 -1 -88 -1 -129 0 -40 -5
-79 -11 -86 -7 -9 -80 -11 -307 -8 -164 2 -313 6 -330 9 -39 6 -37 1 -52 184
-6 74 -16 155 -22 180 -38 153 -53 210 -70 264 -11 34 -21 74 -23 89 -2 15
-11 36 -20 45 -23 26 -32 82 -15 94 16 10 620 4 657 -7z m-6600 -878 c9 -7 12
-34 10 -91 l-3 -80 -55 -17 c-30 -9 -56 -21 -58 -27 -2 -7 1 -26 7 -44 5 -18
13 -112 17 -208 7 -168 6 -205 -1 -260 -2 -14 -4 -47 -4 -73 l-1 -49 -106 5
c-59 3 -112 11 -118 17 -8 8 -11 102 -12 303 0 198 -4 301 -12 320 l-12 27
-139 0 c-183 0 -186 1 -195 83 -7 74 -2 95 28 107 30 12 638 0 654 -13z m850
-9 c7 -6 12 -35 12 -72 0 -69 9 -85 46 -78 22 4 24 8 24 68 0 103 -34 97 522
89 260 -4 480 -11 489 -16 11 -6 20 -35 28 -101 7 -51 17 -106 22 -122 5 -16
9 -57 9 -92 0 -34 6 -89 14 -121 7 -32 20 -85 27 -118 7 -33 23 -80 36 -105
18 -35 23 -61 23 -117 l0 -72 -43 -6 c-47 -7 -205 -1 -214 9 -3 3 4 21 16 41
20 34 21 50 21 271 1 237 -5 290 -38 331 -17 23 -18 23 -342 24 -387 2 -1201
17 -1317 25 l-83 6 0 78 c0 64 3 81 18 90 23 14 711 3 730 -12z m2168 -20 c9
-10 14 -121 7 -149 -6 -21 -10 -21 -412 -14 -464 9 -460 9 -481 -9 -34 -29
-40 -28 -60 16 -26 57 -28 165 -3 170 33 6 942 -7 949 -14z m1047 -18 c4 -4 7
-40 5 -81 l-3 -74 -105 -2 c-58 -1 -136 2 -173 7 -41 5 -79 5 -95 -1 -17 -6
-135 -6 -302 -2 l-275 8 -3 77 -3 77 43 4 c69 7 902 -4 911 -13z m957 -2 c0
-4 37 -8 82 -10 l83 -3 5 -35 c3 -19 3 -51 0 -70 l-5 -35 -190 -7 c-137 -5
-196 -4 -213 4 -18 9 -31 9 -60 -2 -56 -20 -84 -41 -77 -58 3 -8 -2 -26 -11
-39 -13 -20 -16 -52 -15 -167 1 -194 12 -395 22 -402 35 -21 -10 -25 -258 -22
l-268 3 3 32 c2 17 -1 34 -6 37 -18 11 9 498 29 523 7 8 11 54 10 122 -2 89 1
111 14 125 15 15 57 16 436 14 230 -2 419 -6 419 -10z m974 -24 c16 -6 17 -14
11 -73 -4 -36 -10 -70 -13 -75 -8 -13 -703 2 -719 16 -15 12 -7 114 11 137 9
12 67 13 351 8 187 -3 348 -9 359 -13z m789 -26 c13 -15 17 -38 17 -94 0 -40
-4 -83 -9 -96 -27 -68 -34 -109 -23 -120 18 -18 14 -64 -8 -107 -11 -22 -28
-70 -38 -108 -11 -37 -29 -93 -42 -123 -12 -30 -27 -66 -32 -80 -5 -14 -17
-41 -26 -60 l-17 -35 -124 -3 -124 -3 8 23 c34 108 58 576 32 627 -19 38 -46
43 -246 49 l-64 2 7 53 c11 83 16 96 39 99 12 2 159 2 327 0 293 -3 306 -4
323 -24z m-7398 -181 c99 -1 185 -6 192 -10 15 -9 16 -277 1 -316 -6 -16 -5
-27 2 -31 7 -4 10 -31 8 -66 l-3 -59 -191 0 c-147 0 -195 -3 -207 -14 -21 -16
-22 -74 -3 -90 8 -6 16 -26 19 -44 13 -73 20 -97 27 -97 4 0 10 -8 14 -17 3
-10 9 -24 12 -32 5 -10 3 -11 -7 -6 -8 5 -6 -1 4 -12 10 -11 17 -24 16 -29 -1
-5 3 -22 9 -37 7 -16 12 -32 12 -37 0 -5 5 -10 10 -12 6 -2 11 -18 13 -36 1
-17 5 -32 9 -32 3 0 9 -18 13 -40 4 -22 11 -42 16 -46 5 -3 9 -14 9 -24 0 -11
8 -34 18 -52 10 -18 26 -62 37 -98 10 -36 22 -69 27 -75 4 -5 8 -22 8 -37 0
-15 5 -28 10 -28 6 0 10 -15 10 -34 0 -21 6 -36 15 -40 9 -3 15 -18 15 -36 0
-16 5 -30 10 -30 6 0 10 -14 10 -31 0 -17 10 -45 22 -61 11 -17 23 -41 25 -54
1 -13 5 -34 8 -46 3 -13 8 -38 11 -57 5 -23 9 -29 15 -20 6 10 9 8 9 -9 0 -12
7 -34 16 -47 9 -14 14 -34 11 -46 -3 -12 0 -22 9 -26 8 -3 14 -19 14 -39 0
-19 5 -34 10 -34 6 0 10 -9 10 -20 0 -11 5 -20 10 -20 6 0 10 -7 10 -15 0 -8
-5 -15 -12 -15 -13 0 -9 -7 7 -11 17 -5 35 -49 35 -86 0 -20 4 -32 10 -28 6 4
10 -10 10 -35 0 -31 6 -47 25 -64 14 -13 25 -31 25 -40 0 -9 5 -16 10 -16 15
0 12 -30 -2 -31 -10 0 -10 -2 0 -6 6 -2 12 -14 12 -24 0 -11 5 -17 10 -14 6 3
10 -3 10 -13 0 -25 31 -53 37 -34 3 6 11 12 19 12 8 0 14 7 14 15 0 8 6 15 14
15 9 0 13 9 12 25 -2 14 3 37 10 51 8 14 14 33 14 40 0 8 4 22 9 32 25 50 49
111 55 140 4 17 12 32 17 32 5 0 9 6 9 13 0 7 11 35 24 63 13 27 31 74 41 104
10 30 22 63 27 73 5 10 6 23 2 29 -4 7 -3 8 4 4 7 -4 13 7 18 29 3 19 10 35
15 35 5 0 9 14 9 30 0 17 6 33 14 36 8 3 13 11 10 18 -3 7 2 19 10 26 9 7 13
16 10 22 -3 5 1 20 10 33 9 13 16 33 16 45 0 11 5 20 10 20 6 0 10 12 10 28 0
15 7 40 15 56 8 15 15 37 15 47 0 10 5 21 10 24 6 3 10 17 10 31 0 13 4 32 9
42 9 17 16 34 46 107 9 22 21 48 26 57 5 10 9 27 9 38 0 11 12 38 26 59 27 41
36 122 15 129 -6 2 -11 11 -11 20 0 9 -12 42 -26 72 -51 107 -62 155 -41 184
12 17 9 23 -29 58 -52 48 -75 55 -220 64 -110 6 -116 8 -125 31 -5 14 -7 29
-4 33 3 5 7 99 9 210 2 111 7 204 10 208 12 11 165 23 311 23 77 0 430 -1 784
-4 700 -5 660 -1 661 -62 0 -16 2 -115 4 -220 2 -104 0 -198 -6 -207 -8 -16
-26 -18 -162 -18 -173 0 -182 -3 -170 -64 3 -20 10 -39 15 -42 5 -3 9 -17 9
-31 0 -15 7 -34 16 -44 14 -16 37 -94 51 -177 3 -18 9 -35 14 -38 5 -3 9 -20
9 -39 0 -19 6 -38 13 -42 12 -8 40 -77 56 -138 5 -16 20 -56 34 -88 15 -32 29
-74 33 -95 3 -20 15 -53 27 -72 21 -37 36 -85 42 -136 2 -17 8 -40 13 -50 6
-11 22 -48 37 -84 15 -36 32 -72 39 -80 7 -8 23 -49 35 -90 13 -41 27 -85 32
-98 5 -13 9 -30 9 -38 0 -9 7 -22 15 -31 8 -8 13 -19 10 -24 -3 -4 1 -19 10
-33 9 -13 18 -35 19 -48 5 -38 17 -81 31 -113 38 -85 46 -106 40 -114 -3 -5
-1 -12 5 -16 5 -3 10 -15 10 -26 0 -10 5 -19 10 -19 6 0 10 -13 10 -30 0 -16
6 -33 14 -37 7 -4 15 -15 18 -23 6 -17 60 93 76 155 19 73 45 160 52 175 23
47 41 96 50 140 8 33 23 80 41 125 4 11 14 43 22 70 13 45 34 97 72 180 8 17
17 44 21 60 4 17 17 50 30 75 50 103 74 158 74 173 0 9 4 19 10 22 6 3 10 13
10 21 0 8 12 41 26 72 14 31 32 71 40 89 15 33 12 67 -11 113 -7 14 -17 41
-22 60 -6 19 -26 87 -46 150 -20 63 -41 135 -48 160 -29 112 -42 120 -194 120
-49 0 -97 4 -105 10 -21 13 -16 448 6 470 13 13 87 15 557 14 637 -1 1199 -12
1210 -23 11 -11 12 -460 0 -472 -5 -5 -85 -9 -178 -10 -94 0 -176 -4 -187 -10
-10 -6 -23 -22 -29 -37 -10 -26 -7 -36 38 -124 7 -14 13 -33 13 -42 0 -9 4
-24 9 -34 18 -36 66 -192 78 -252 5 -28 49 -182 62 -220 16 -45 83 -215 92
-232 5 -10 9 -26 9 -35 0 -10 18 -54 40 -98 22 -44 40 -84 40 -90 0 -5 9 -21
20 -35 11 -14 20 -33 20 -42 0 -9 6 -29 14 -45 27 -54 48 -109 77 -198 17 -49
34 -99 39 -110 13 -30 71 -197 77 -220 10 -46 38 -131 46 -142 16 -22 41 3 56
54 8 26 25 69 38 94 13 26 23 49 23 52 0 3 16 40 35 81 19 42 35 80 35 85 0 8
30 88 54 146 7 17 18 41 24 55 22 51 54 146 59 173 3 15 9 30 14 33 5 3 9 12
9 19 0 13 37 101 61 147 5 10 9 27 9 38 0 12 6 33 14 48 7 15 32 80 55 145 22
65 47 133 55 150 8 18 22 55 31 82 9 28 25 69 35 92 11 24 20 47 20 52 0 5 7
14 15 21 8 7 12 16 9 22 -3 5 1 19 9 31 7 12 16 33 19 47 3 14 17 55 31 92 14
38 23 76 20 87 -3 10 0 22 6 25 17 11 13 62 -6 77 -11 10 -57 16 -147 19
l-131 5 0 225 c0 124 3 233 7 243 7 17 29 18 410 12 222 -3 484 -10 583 -16
99 -5 264 -9 368 -9 l187 0 11 -24 c8 -16 8 -90 3 -242 l-9 -219 -130 -1
c-196 -1 -185 2 -185 -38 0 -18 7 -47 15 -62 8 -16 15 -37 15 -46 0 -10 7 -27
17 -37 9 -11 22 -39 30 -63 8 -24 18 -52 22 -63 19 -49 41 -124 41 -143 0 -12
5 -24 10 -27 6 -3 10 -19 10 -34 0 -15 5 -32 10 -37 6 -6 15 -36 20 -67 9 -55
17 -77 66 -184 13 -28 24 -59 24 -67 0 -8 5 -18 10 -21 6 -3 10 -16 10 -29 0
-12 9 -40 20 -63 18 -38 70 -182 106 -298 9 -27 22 -63 29 -80 7 -16 27 -75
44 -130 29 -89 44 -130 72 -187 5 -10 9 -29 9 -42 0 -14 5 -28 10 -31 6 -3 10
-16 10 -28 0 -12 7 -31 15 -41 8 -11 15 -27 15 -36 0 -30 31 -81 56 -92 35
-16 62 12 70 73 4 27 10 46 15 44 9 -6 30 39 49 105 8 25 19 56 25 70 7 14 17
40 24 58 6 17 16 47 22 65 7 17 22 59 35 92 13 33 24 66 24 73 0 7 9 32 20 54
11 23 20 47 20 52 0 6 6 22 13 36 7 14 19 45 26 70 34 118 66 212 73 216 4 3
8 12 8 21 0 8 6 29 13 46 13 30 23 56 48 130 27 74 83 213 91 222 4 5 8 21 8
36 0 15 7 32 15 39 8 7 15 23 15 36 0 12 4 26 10 29 5 3 10 16 10 28 0 12 7
31 15 41 8 11 15 28 15 38 0 10 9 37 19 61 11 23 29 69 41 101 21 59 21 60 2
85 l-19 26 -175 -4 c-149 -2 -176 -1 -181 12 -11 28 -8 436 3 457 11 20 22 20
753 20 656 0 746 -2 765 -16 22 -15 22 -17 18 -244 -2 -126 -7 -234 -11 -240
-4 -6 -60 -10 -147 -10 -161 0 -167 -3 -168 -80 0 -26 -4 -50 -8 -55 -4 -6
-16 -37 -27 -70 -10 -33 -22 -64 -27 -70 -4 -5 -8 -22 -8 -38 0 -16 -6 -41
-14 -55 -40 -78 -56 -116 -56 -130 0 -26 -33 -119 -61 -174 -5 -10 -9 -26 -9
-36 0 -10 -4 -22 -8 -27 -5 -6 -15 -26 -22 -45 -7 -19 -24 -59 -37 -88 -12
-29 -23 -61 -23 -71 0 -11 -9 -41 -21 -68 -28 -65 -49 -125 -49 -141 0 -8 -7
-30 -16 -50 -9 -21 -20 -47 -25 -59 -5 -13 -13 -33 -18 -45 -6 -13 -17 -45
-26 -73 -8 -27 -19 -59 -24 -70 -25 -57 -51 -129 -51 -141 0 -7 -11 -37 -24
-66 -14 -29 -37 -89 -51 -133 -15 -44 -31 -84 -35 -90 -5 -5 -18 -41 -30 -80
-12 -38 -28 -79 -34 -90 -7 -11 -25 -60 -41 -110 -15 -49 -32 -97 -36 -105
-15 -28 -57 -145 -74 -203 -9 -32 -23 -70 -31 -85 -8 -15 -14 -33 -14 -40 0
-7 -8 -32 -19 -55 -10 -23 -33 -78 -51 -122 -17 -44 -35 -84 -41 -90 -5 -5 -9
-18 -9 -29 0 -19 -41 -134 -60 -168 -6 -10 -10 -22 -10 -28 0 -5 -11 -33 -24
-62 -37 -83 -46 -108 -46 -123 0 -8 -11 -38 -24 -67 -13 -29 -26 -64 -29 -78
-8 -44 -72 -217 -86 -234 -14 -17 -56 -22 -65 -8 -5 9 -53 8 -94 -3 -35 -9
-327 -7 -464 3 -108 9 -138 20 -138 51 0 9 -4 21 -8 26 -5 6 -17 33 -27 60
-27 76 -85 227 -95 250 -5 11 -25 67 -46 125 -20 58 -42 119 -49 135 -12 28
-46 124 -136 380 -21 61 -43 119 -49 130 -5 11 -18 48 -30 82 -11 34 -29 86
-41 115 -12 29 -38 100 -59 158 -21 58 -50 137 -65 175 -15 39 -31 86 -36 105
-6 19 -16 51 -23 70 -8 19 -19 55 -26 80 -13 47 -16 56 -46 130 -51 128 -136
135 -196 15 -17 -33 -35 -68 -39 -77 -5 -10 -9 -27 -9 -38 0 -11 -4 -28 -9
-38 -6 -9 -18 -42 -27 -72 -10 -30 -25 -69 -34 -86 -10 -17 -21 -45 -25 -62
-3 -18 -11 -34 -16 -37 -5 -4 -9 -14 -9 -24 0 -9 -9 -36 -20 -59 -11 -22 -20
-45 -20 -49 0 -5 -16 -46 -35 -91 -19 -46 -46 -118 -61 -160 -14 -42 -29 -86
-34 -97 -5 -11 -37 -92 -71 -180 -34 -88 -70 -179 -80 -203 -11 -24 -27 -62
-35 -85 -18 -48 -27 -70 -44 -112 -6 -16 -18 -50 -26 -75 -8 -25 -19 -55 -25
-67 -5 -13 -13 -33 -18 -45 -5 -13 -17 -41 -26 -63 -40 -94 -79 -200 -94 -250
-19 -64 -32 -83 -60 -93 -14 -5 -129 -8 -256 -7 -388 3 -402 5 -411 43 -3 15
-9 36 -14 47 -26 64 -60 157 -60 166 0 17 -70 203 -81 214 -5 5 -9 17 -9 27 0
10 -4 26 -10 36 -5 9 -32 82 -59 162 -27 80 -68 197 -91 260 -23 63 -45 129
-50 145 -11 43 -41 127 -52 148 -5 10 -20 55 -34 100 -13 45 -28 91 -34 102
-14 30 -57 165 -64 205 -7 38 -56 159 -116 285 -21 44 -41 90 -45 103 -3 12
-15 27 -26 32 -16 9 -21 6 -34 -22 -7 -18 -30 -68 -50 -110 -19 -43 -35 -82
-35 -87 0 -6 -9 -26 -20 -46 -11 -20 -20 -43 -20 -53 0 -9 -7 -30 -15 -46 -8
-15 -15 -35 -15 -42 0 -8 -5 -14 -12 -14 -9 0 -9 -3 -1 -11 11 -11 6 -35 -22
-104 -7 -16 -18 -48 -25 -70 -13 -40 -22 -66 -39 -107 -5 -13 -17 -45 -26 -73
-10 -27 -21 -59 -25 -70 -18 -45 -41 -108 -60 -167 -11 -35 -25 -73 -30 -85
-6 -13 -15 -35 -21 -50 -6 -16 -17 -41 -25 -56 -8 -16 -14 -37 -14 -48 0 -19
-2 -26 -33 -87 -9 -19 -17 -45 -17 -58 0 -13 -4 -24 -10 -24 -5 0 -10 -10 -10
-23 0 -13 -3 -27 -7 -31 -8 -7 -24 -51 -59 -156 -14 -41 -31 -88 -39 -105 -41
-90 -55 -127 -55 -150 0 -14 -4 -25 -8 -25 -5 0 -16 -28 -26 -63 -11 -34 -22
-66 -26 -70 -6 -7 -159 -9 -486 -7 -90 0 -120 14 -127 60 -4 25 -11 45 -48
128 -10 23 -19 49 -19 56 0 8 -6 27 -14 43 -21 41 -56 134 -56 148 0 7 -7 26
-15 41 -8 16 -15 37 -15 46 0 9 -4 20 -10 23 -5 3 -10 17 -10 30 0 13 -4 26
-9 30 -5 3 -17 31 -26 63 -9 31 -23 73 -32 92 -13 28 -65 174 -77 215 -1 6
-10 27 -19 49 -9 21 -17 44 -17 50 0 16 -35 114 -43 123 -4 3 -7 16 -7 28 0
11 -4 25 -9 31 -5 5 -21 47 -36 94 -14 47 -31 89 -36 94 -5 6 -9 19 -9 31 0
12 -4 25 -9 31 -4 5 -16 34 -25 64 -18 58 -30 88 -52 132 -8 14 -14 36 -14 47
0 12 -4 29 -9 39 -11 21 -26 55 -46 107 -36 91 -39 95 -67 95 -15 0 -39 -5
-53 -12 -20 -9 -25 -18 -25 -47 0 -20 -7 -49 -15 -65 -8 -15 -15 -41 -15 -57
0 -16 -4 -29 -10 -29 -5 0 -10 -9 -10 -20 0 -11 -4 -28 -9 -38 -34 -66 -51
-113 -46 -122 3 -5 1 -10 -4 -10 -6 0 -11 -9 -11 -20 0 -11 -4 -20 -10 -20 -5
0 -10 -9 -10 -20 0 -19 -9 -42 -56 -145 -12 -27 -28 -72 -35 -100 -6 -27 -16
-54 -20 -59 -5 -6 -9 -18 -9 -28 0 -10 -6 -18 -12 -18 -9 0 -8 -4 2 -11 11 -8
12 -12 3 -16 -7 -2 -13 -13 -13 -24 0 -10 -4 -19 -9 -19 -5 0 -12 -10 -16 -22
-19 -72 -29 -104 -37 -112 -4 -6 -8 -20 -8 -33 0 -13 -4 -23 -9 -23 -5 0 -17
-26 -27 -57 -9 -32 -21 -62 -26 -68 -4 -5 -8 -19 -8 -31 0 -20 -26 -80 -40
-94 -3 -3 -6 -14 -8 -25 -3 -19 -15 -52 -33 -87 -5 -10 -9 -25 -9 -34 0 -8 -7
-22 -15 -30 -8 -9 -15 -27 -15 -40 0 -14 -4 -22 -10 -19 -5 3 -10 1 -10 -4 0
-6 6 -11 13 -12 10 0 10 -2 0 -6 -7 -2 -13 -13 -13 -24 0 -10 -7 -19 -15 -19
-9 0 -12 -6 -9 -15 4 -10 0 -15 -12 -16 -17 -1 -17 -2 -1 -6 21 -5 22 -22 2
-29 -8 -4 -15 -14 -15 -24 0 -11 -4 -22 -10 -25 -5 -3 -10 -17 -10 -31 0 -13
-4 -24 -8 -24 -4 0 -8 -10 -9 -22 -1 -11 -6 -24 -10 -27 -4 -3 -8 -12 -9 -18
-1 -7 -2 -22 -2 -33 -1 -11 -8 -20 -16 -20 -7 0 -16 -13 -19 -30 -8 -36 23
-33 -377 -30 -311 2 -303 0 -317 63 -3 16 -11 31 -17 33 -7 3 -12 12 -13 22
-1 9 -15 58 -33 107 -17 50 -42 126 -57 170 -14 44 -36 103 -48 130 -13 28
-29 68 -35 90 -7 22 -23 63 -35 90 -11 28 -27 70 -34 95 -7 25 -19 60 -27 78
-8 18 -12 38 -9 43 4 5 2 9 -2 9 -10 0 -20 25 -64 150 -16 47 -34 94 -39 105
-5 11 -14 38 -21 60 -6 22 -21 63 -31 90 -11 28 -37 97 -58 155 -21 58 -53
143 -70 190 -18 47 -40 111 -51 143 -10 32 -25 72 -33 90 -8 18 -18 50 -24 72
-10 39 -34 111 -57 170 -17 43 -31 84 -46 135 -7 25 -15 50 -18 55 -3 6 -13
30 -22 55 -38 103 -43 117 -62 160 -11 25 -26 68 -34 95 -8 28 -18 59 -23 70
-13 26 -71 184 -77 210 -3 11 -11 34 -18 50 -12 28 -60 158 -100 270 -116 327
-138 378 -167 396 -36 22 -96 41 -126 39 -15 -1 -75 -2 -134 -1 l-107 1 0 137
c0 101 -3 139 -13 145 -10 8 -10 11 0 15 8 3 12 29 12 79 0 126 -81 114 767
108 400 -3 809 -6 908 -7z m6876 -604 c27 -10 47 -22 45 -28 -6 -17 -139 -7
-153 12 -28 36 27 45 108 16z m-6059 -50 c18 -4 33 -14 35 -25 3 -10 9 -18 14
-18 5 0 9 -8 9 -19 0 -10 12 -49 26 -87 14 -38 28 -80 31 -94 3 -14 10 -30 15
-37 16 -20 2 -75 -45 -173 -15 -30 -28 -66 -29 -80 -2 -14 -5 -27 -9 -30 -3
-3 -14 -27 -25 -55 -30 -75 -46 -71 -139 31 -44 47 -97 109 -119 138 -21 28
-44 54 -51 59 -29 16 -258 383 -249 398 5 9 69 10 256 5 137 -4 263 -10 280
-13z m1846 -19 l91 -7 17 -46 c9 -25 20 -55 24 -66 5 -11 24 -67 44 -125 52
-157 90 -259 123 -331 16 -35 36 -79 43 -96 7 -18 16 -33 21 -33 13 0 11 -38
-5 -90 l-13 -45 -247 -3 -247 -2 -29 62 c-17 35 -30 72 -30 83 0 11 -10 40
-21 65 -19 41 -71 181 -129 350 -13 36 -40 112 -61 169 -21 57 -36 108 -33
112 6 10 320 12 452 3z m322 -61 c12 -32 27 -71 35 -88 44 -101 109 -283 107
-300 -4 -26 -43 -137 -53 -149 -15 -17 -86 128 -175 362 -52 135 -67 201 -52
219 6 8 33 13 64 13 l53 0 21 -57z m1573 38 c15 -2 5 -60 -35 -193 -26 -88
-46 -138 -55 -138 -7 0 -13 1 -13 3 0 2 -22 69 -50 150 -27 81 -50 154 -50
161 0 9 12 16 28 18 24 3 155 2 175 -1z m682 -7 c127 -3 234 -9 239 -14 5 -5
-8 -55 -31 -117 -23 -59 -48 -132 -58 -161 -9 -29 -28 -65 -42 -80 -13 -15
-47 -58 -75 -97 -68 -92 -225 -280 -277 -329 l-40 -39 -148 1 c-81 1 -153 1
-158 2 -13 0 -61 123 -111 279 -36 114 -36 114 -20 165 9 27 22 57 30 66 14
17 25 46 51 135 10 33 24 75 31 93 8 18 14 40 14 49 0 9 10 28 23 41 22 24 22
24 182 18 88 -3 264 -9 390 -12z m1830 -38 c16 -10 25 -10 45 1 54 28 66 9 25
-39 -14 -16 -25 -37 -25 -47 0 -20 -49 -99 -73 -119 -8 -7 -19 -27 -22 -43 -6
-28 -105 -139 -124 -139 -4 0 -8 14 -8 30 0 17 -9 40 -22 54 -12 13 -35 61
-51 107 -39 112 -53 149 -69 178 -8 15 -9 26 -3 30 19 11 306 0 327 -13z
m-1823 -664 c-9 -26 -20 -48 -24 -50 -5 -2 -8 -10 -8 -17 0 -8 -5 -26 -12 -40
-9 -21 -18 -25 -54 -25 -74 0 -70 18 35 128 33 35 64 61 70 58 6 -4 4 -24 -7
-54z m-2286 -189 c15 -5 13 -26 -6 -68 -5 -11 -18 -47 -28 -80 -28 -88 -64
-165 -77 -165 -6 0 -44 25 -85 55 -41 30 -81 55 -88 55 -39 0 -70 32 -100 100
-53 118 -65 111 169 110 111 -1 208 -4 215 -7z m1872 -18 c18 -6 15 -35 -4
-35 -9 0 -35 -20 -58 -45 -24 -25 -47 -45 -53 -45 -17 0 -59 120 -45 129 11 7
135 4 160 -4z m290 -1 c34 -7 34 -18 1 -91 -10 -24 -19 -49 -19 -56 0 -7 -4
-17 -9 -22 -5 -6 -19 -35 -32 -65 -31 -77 -60 -112 -110 -137 -56 -28 -132
-39 -146 -21 -14 18 -63 159 -63 180 0 10 19 30 42 44 24 15 58 42 78 61 125
118 117 113 174 113 29 0 67 -3 84 -6z m-2422 -292 c22 -10 59 -30 83 -46 49
-31 49 -33 8 -131 -26 -61 -52 -81 -63 -48 -4 10 -18 45 -31 78 -14 33 -28 74
-33 90 -5 17 -12 40 -15 53 -9 27 1 28 51 4z m2254 -183 c0 -29 -44 -129 -56
-129 -8 0 -14 1 -14 3 0 1 -9 27 -20 57 -25 69 -25 68 8 73 55 8 82 7 82 -4z
m-4560 -170 c0 -6 -4 -7 -10 -4 -5 3 -10 11 -10 16 0 6 5 7 10 4 6 -3 10 -11
10 -16z"/>
<path d="M6305 4871 c-11 -5 -47 -11 -80 -15 -33 -3 -80 -10 -105 -16 -25 -6
-57 -14 -72 -17 -25 -5 -28 -10 -28 -44 0 -22 4 -47 9 -57 19 -35 41 -90 41
-102 0 -6 13 -37 29 -68 16 -31 39 -78 52 -105 24 -48 94 -137 108 -137 5 0
13 46 19 103 11 96 47 364 59 435 5 33 1 36 -32 23z"/>
<path d="M5670 3877 c0 -7 9 -18 19 -24 16 -10 20 -9 24 7 3 10 2 21 -1 24
-10 11 -42 6 -42 -7z"/>
<path d="M2625 9006 c-27 -13 -59 -33 -69 -45 -19 -21 -19 -22 5 -68 13 -26
38 -66 54 -88 17 -22 40 -56 50 -75 11 -19 34 -52 52 -74 17 -21 39 -52 47
-70 19 -39 73 -96 91 -96 8 0 17 5 20 10 4 6 24 19 45 30 54 27 83 72 82 125
0 46 -14 79 -64 151 -18 25 -37 53 -43 63 -43 70 -89 121 -128 140 -55 27 -80
26 -142 -3z m148 -108 c24 -29 48 -63 51 -75 4 -12 25 -43 46 -69 46 -56 55
-86 38 -122 -26 -53 -38 -44 -135 96 -13 18 -23 36 -23 40 0 4 -13 23 -29 42
-53 66 -74 123 -48 133 35 15 57 5 100 -45z"/>
<path d="M9109 8903 c-174 -181 -264 -285 -264 -307 0 -33 48 -34 86 -2 66 56
131 15 96 -60 -22 -46 -21 -76 2 -91 17 -11 23 -9 39 12 11 13 25 39 31 57 7
18 18 44 26 58 16 30 44 87 55 115 5 11 19 45 33 75 14 30 32 73 41 95 9 22
22 48 27 58 10 19 1 38 -31 64 -32 26 -56 13 -141 -74z m7 -168 c-25 -55 -49
-76 -67 -58 -15 15 4 54 47 99 46 49 54 33 20 -41z"/>
<path d="M9412 8858 c-17 -17 -15 -32 9 -54 28 -25 20 -47 -59 -161 -166 -237
-183 -271 -144 -292 27 -14 45 1 106 91 132 194 175 252 191 264 17 13 45 8
56 -9 10 -14 49 11 49 32 0 11 -18 30 -42 46 -24 15 -62 43 -85 61 -44 36 -62
41 -81 22z"/>
<path d="M2299 8769 c-9 -17 -7 -26 8 -48 11 -14 41 -57 68 -96 26 -38 64 -89
84 -112 45 -52 72 -90 91 -126 8 -16 26 -37 41 -48 l27 -19 53 36 c101 68 114
87 82 116 -20 18 -50 11 -72 -16 -19 -22 -58 -20 -71 4 -6 11 -30 42 -53 69
-23 27 -65 82 -94 122 -96 137 -138 166 -164 118z"/>
<path d="M2090 8619 c-49 -29 -90 -70 -90 -88 0 -9 11 -28 25 -43 14 -15 25
-33 25 -41 0 -8 33 -53 73 -100 39 -47 98 -119 131 -161 61 -78 81 -89 109
-58 25 27 22 38 -26 100 -56 74 -59 80 -52 92 8 13 54 -6 90 -38 62 -56 88
-69 118 -60 41 14 34 41 -24 90 -118 98 -130 111 -126 130 3 10 1 16 -4 12 -5
-3 -9 10 -9 28 -1 36 -35 88 -87 132 -39 33 -102 35 -153 5z m93 -70 c14 -6
35 -29 47 -51 18 -33 20 -44 11 -64 -17 -38 -45 -29 -85 26 -57 79 -44 121 27
89z"/>
<path d="M9674 8608 c-85 -93 -279 -347 -286 -376 -5 -19 -1 -25 20 -33 24 -9
31 -6 67 33 74 81 255 314 277 357 10 20 9 25 -7 37 -27 20 -38 18 -71 -18z"/>
<path d="M9834 8446 c-21 -18 -59 -59 -84 -91 -25 -32 -59 -74 -76 -94 -29
-34 -45 -60 -74 -123 -16 -33 -7 -68 26 -107 69 -82 195 -45 256 74 11 22 37
58 58 81 58 63 93 130 94 179 1 37 -4 49 -33 79 -30 31 -41 36 -81 36 -38 0
-53 -6 -86 -34z m114 -48 c22 -22 13 -46 -50 -140 -92 -134 -154 -200 -187
-196 -42 5 -40 49 6 117 57 85 186 231 204 231 8 0 20 -5 27 -12z"/>
<path d="M1809 8387 c-26 -17 -35 -31 -37 -57 -2 -19 -9 -38 -15 -42 -9 -6 -9
-8 1 -8 6 0 12 -12 12 -28 0 -15 5 -33 11 -39 6 -6 16 -20 23 -32 24 -43 187
-251 204 -260 9 -5 34 -12 55 -16 31 -6 44 -3 77 20 70 48 85 105 49 178 -34
68 -187 266 -222 287 -45 28 -115 26 -158 -3z m106 -65 c20 -14 132 -158 169
-216 44 -69 46 -109 6 -114 -17 -2 -33 5 -47 20 -46 50 -184 243 -189 265 -10
38 30 68 61 45z"/>
<path d="M10149 8293 c-14 -16 -38 -46 -55 -67 -16 -22 -53 -71 -81 -108 -29
-38 -53 -72 -53 -76 0 -3 -11 -17 -24 -31 -34 -37 -66 -97 -66 -126 0 -20 5
-25 24 -25 26 0 65 40 131 134 56 80 80 76 50 -9 -8 -22 -17 -59 -21 -83 -3
-23 -10 -45 -15 -48 -16 -9 -10 -90 7 -105 22 -18 40 -4 91 67 23 32 62 88 88
124 25 36 61 85 80 110 57 74 78 119 64 136 -6 8 -17 14 -24 14 -16 0 -80 -70
-125 -137 -56 -84 -68 -44 -25 83 30 88 32 141 8 160 -24 18 -26 18 -54 -13z"/>
<path d="M1622 8238 c-18 -18 -15 -66 7 -96 36 -52 70 -121 62 -126 -9 -6 -33
11 -107 77 -60 52 -73 56 -97 29 -15 -17 -13 -24 28 -107 65 -129 60 -144 -21
-72 -89 78 -128 93 -155 61 -11 -13 -6 -22 37 -61 27 -26 97 -92 155 -147 115
-109 142 -133 181 -158 24 -16 27 -16 46 5 19 20 19 25 7 60 -7 21 -24 55 -37
75 -24 37 -44 92 -33 92 15 0 55 -27 113 -76 66 -56 79 -58 111 -20 11 13 6
27 -31 88 -25 40 -66 111 -92 158 -26 47 -60 105 -76 130 -16 25 -34 55 -39
66 -5 12 -17 24 -26 28 -21 8 -19 8 -33 -6z"/>
</g>
</svg>
